<svg t="1573219878980" class="icon" viewBox="0 0 1024 1024" version="1.1" xmlns="http://www.w3.org/2000/svg" p-id="2837" width="200" height="200"><path d="M195.2 672c0 35.2 28.8 64 64 64H288c3.2 12.8 9.6 28.8 16 41.6-3.2 3.2-6.4 6.4-9.6 6.4-22.4 16-28.8 44.8-19.2 70.4 9.6 25.6 32 41.6 60.8 41.6H694.4c25.6 0 51.2-16 60.8-41.6 9.6-25.6 0-54.4-19.2-70.4-3.2-3.2-6.4-6.4-9.6-6.4 6.4-12.8 12.8-25.6 16-41.6h28.8c35.2 0 64-28.8 64-64 0-99.2-38.4-188.8-108.8-252.8-3.2-6.4-6.4-12.8-9.6-16 6.4-19.2 9.6-41.6 9.6-60.8 0-115.2-92.8-208-208-208S304 224 304 339.2c0 19.2 3.2 41.6 9.6 60.8-3.2 6.4-6.4 12.8-9.6 16-70.4 67.2-108.8 156.8-108.8 256z m163.2-214.4c6.4-19.2 16-35.2 28.8-51.2-9.6-19.2-16-41.6-16-67.2 0-80 64-144 144-144s144 64 144 144c0 25.6-6.4 48-16 67.2 9.6 16 19.2 32 28.8 51.2 60.8 51.2 99.2 128 99.2 214.4h-76.8c-9.6 51.2-28.8 92.8-54.4 128 22.4 9.6 41.6 22.4 57.6 35.2H339.2c16-12.8 35.2-25.6 57.6-35.2-25.6-32-44.8-76.8-54.4-128H259.2c0-86.4 38.4-163.2 99.2-214.4z" fill="#707070" p-id="2838"></path></svg>